<?xml version="1.0" encoding="UTF-8" standalone="no"?>
<!-- Created with Inkscape (http://www.inkscape.org/) -->

<svg
   xmlns:osb="http://www.openswatchbook.org/uri/2009/osb"
   xmlns:dc="http://purl.org/dc/elements/1.1/"
   xmlns:cc="http://creativecommons.org/ns#"
   xmlns:rdf="http://www.w3.org/1999/02/22-rdf-syntax-ns#"
   xmlns:svg="http://www.w3.org/2000/svg"
   xmlns="http://www.w3.org/2000/svg"
   xmlns:xlink="http://www.w3.org/1999/xlink"
   xmlns:sodipodi="http://sodipodi.sourceforge.net/DTD/sodipodi-0.dtd"
   xmlns:inkscape="http://www.inkscape.org/namespaces/inkscape"
   width="1024"
   height="500"
   viewBox="0 0 270.93333 132.29167"
   version="1.1"
   id="svg8"
   inkscape:version="0.92.3 (2405546, 2018-03-11)"
   sodipodi:docname="ink_featureGraphic.svg"
   inkscape:export-filename="C:\Users\Mohsen\Downloads\featureGraphic.png"
   inkscape:export-xdpi="95.999992"
   inkscape:export-ydpi="95.999992">
  <defs
     id="defs2">
    <linearGradient
       inkscape:collect="always"
       id="linearGradient1067">
      <stop
         style="stop-color:#677821;stop-opacity:1;"
         offset="0"
         id="stop1063" />
      <stop
         style="stop-color:#d0d500;stop-opacity:0"
         offset="1"
         id="stop1065" />
    </linearGradient>
    <linearGradient
       id="linearGradient1057"
       osb:paint="solid">
      <stop
         style="stop-color:#ffffff;stop-opacity:1;"
         offset="0"
         id="stop1055" />
    </linearGradient>
    <linearGradient
       inkscape:collect="always"
       id="linearGradient1031">
      <stop
         style="stop-color:#808000;stop-opacity:1;"
         offset="0"
         id="stop1027" />
      <stop
         style="stop-color:#808000;stop-opacity:0;"
         offset="1"
         id="stop1029" />
    </linearGradient>
    <linearGradient
       inkscape:collect="always"
       xlink:href="#linearGradient1031"
       id="linearGradient1033"
       x1="128.5119"
       y1="-5.2916665"
       x2="125.11012"
       y2="134.55952"
       gradientUnits="userSpaceOnUse" />
    <linearGradient
       inkscape:collect="always"
       xlink:href="#linearGradient1067"
       id="linearGradient1069"
       x1="131.53572"
       y1="131.15775"
       x2="133.80357"
       y2="-6.0476193"
       gradientUnits="userSpaceOnUse" />
  </defs>
  <sodipodi:namedview
     id="base"
     pagecolor="#ffffff"
     bordercolor="#666666"
     borderopacity="1.0"
     inkscape:pageopacity="0"
     inkscape:pageshadow="2"
     inkscape:zoom="0.7"
     inkscape:cx="546.03258"
     inkscape:cy="116.42857"
     inkscape:document-units="mm"
     inkscape:current-layer="layer1"
     showgrid="false"
     units="px"
     inkscape:pagecheckerboard="false"
     showborder="true"
     inkscape:window-width="1920"
     inkscape:window-height="1138"
     inkscape:window-x="-8"
     inkscape:window-y="-8"
     inkscape:window-maximized="1" />
  <metadata
     id="metadata5">
    <rdf:RDF>
      <cc:Work
         rdf:about="">
        <dc:format>image/svg+xml</dc:format>
        <dc:type
           rdf:resource="http://purl.org/dc/dcmitype/StillImage" />
        <dc:title></dc:title>
      </cc:Work>
    </rdf:RDF>
  </metadata>
  <g
     inkscape:groupmode="layer"
     id="layer2"
     inkscape:label="background color"
     style="display:inline">
    <rect
       style="opacity:1;fill:url(#linearGradient1069);fill-opacity:1;fill-rule:evenodd;stroke:#ffffff;stroke-width:5.29999971;stroke-linecap:round;stroke-linejoin:round;stroke-miterlimit:4;stroke-dasharray:none;stroke-dashoffset:0;stroke-opacity:1;paint-order:markers fill stroke"
       id="rect1061"
       width="273.65479"
       height="135.69345"
       x="0.37797621"
       y="-0.37797627"
       ry="0"
       rx="0" />
  </g>
  <g
     inkscape:label="Layer 1"
     inkscape:groupmode="layer"
     id="layer1"
     transform="translate(0,-164.70832)"
     style="display:inline">
    <text
       xml:space="preserve"
       style="font-style:normal;font-weight:normal;font-size:10.58333302px;line-height:1.25;font-family:sans-serif;letter-spacing:0px;word-spacing:0px;fill:#000000;fill-opacity:1;stroke:none;stroke-width:0.26458332"
       x="14.2119"
       y="188.52081"
       id="text817"><tspan
         sodipodi:role="line"
         id="tspan815"
         x="14.2119"
         y="188.52081"
         style="font-style:normal;font-variant:normal;font-weight:bold;font-stretch:normal;font-size:19.75555611px;font-family:'Comic Sans MS';-inkscape-font-specification:'Comic Sans MS Bold';stroke-width:0.26458332">Location Tracker</tspan></text>
    <path
       style="fill:none;stroke:#000000;stroke-width:5.30000019;stroke-linecap:butt;stroke-linejoin:miter;stroke-miterlimit:4;stroke-dasharray:none;stroke-opacity:1"
       d="M 80.929273,267.58484 C 240.77083,266.38391 240.39286,226.60192 240.39286,226.60192"
       id="path984"
       inkscape:connector-curvature="0" />
    <g
       id="g833"
       transform="matrix(2.5639385,0,0,2.7686756,209.6256,165.69106)">
      <path
         id="path819"
         d="M 12,2 C 8.13,2 5,5.13 5,9 c 0,5.25 7,13 7,13 0,0 7,-7.75 7,-13 0,-3.87 -3.13,-7 -7,-7 z m 0,9.5 C 10.62,11.5 9.5,10.38 9.5,9 9.5,7.62 10.62,6.5 12,6.5 c 1.38,0 2.5,1.12 2.5,2.5 0,1.38 -1.12,2.5 -2.5,2.5 z"
         inkscape:connector-curvature="0" />
      <path
         id="path821"
         d="M 0,0 H 24 V 24 H 0 Z"
         inkscape:connector-curvature="0"
         style="fill:none" />
    </g>
    <g
       id="g980"
       transform="matrix(1.4901241,0,0,1.1373647,11.045907,209.57924)">
      <g
         id="row_4" />
      <g
         id="row_3">
        <g
           id="deliver">
          <g
             id="g857">
            <path
               id="path849"
               d="m 53,43 c -4.4,0 -8,3.6 -8,8 0,4.4 3.6,8 8,8 4.4,0 8,-3.6 8,-8 0,-4.4 -3.6,-8 -8,-8 z m 0,12 c -2.2,0 -4,-1.8 -4,-4 0,-2.2 1.8,-4 4,-4 2.2,0 4,1.8 4,4 0,2.2 -1.8,4 -4,4 z"
               inkscape:connector-curvature="0"
               style="fill:#263238" />
            <path
               id="path851"
               d="m 54,51 c 0,-0.5 -0.5,-1 -1,-1 -0.5,0 -1,0.5 -1,1 0,0.5 0.5,1 1,1 0.5,0 1,-0.5 1,-1 z m -1,-4 c 2.2,0 4,1.8 4,4 0,2.2 -1.8,4 -4,4 -2.2,0 -4,-1.8 -4,-4 0,-2.2 1.8,-4 4,-4 z"
               inkscape:connector-curvature="0"
               style="fill:#80deea" />
            <path
               id="path853"
               d="m 53,55.5 c -2.5,0 -4.5,-2 -4.5,-4.5 0,-2.5 2,-4.5 4.5,-4.5 2.5,0 4.5,2 4.5,4.5 0,2.5 -2,4.5 -4.5,4.5 z m 0,-8 c -1.9,0 -3.5,1.6 -3.5,3.5 0,1.9 1.6,3.5 3.5,3.5 1.9,0 3.5,-1.6 3.5,-3.5 0,-1.9 -1.6,-3.5 -3.5,-3.5 z"
               inkscape:connector-curvature="0"
               style="fill:#ffffff" />
            <circle
               id="circle855"
               r="2"
               cy="51"
               cx="53"
               style="fill:#263238" />
          </g>
          <g
             id="g867">
            <path
               id="path859"
               d="m 17.8,49.2 h -0.1 c -0.9,0 -1.7,-0.1 -2.3,-0.1 -0.3,0 -0.6,0 -0.9,-0.1 0.3,0.6 0.6,1.3 0.6,2 0,2.2 -1.8,4 -4,4 -2.2,0 -4,-1.8 -4,-4 0,-1.1 0.4,-2 1.1,-2.8 C 7.3,48 6.6,47.9 6,47.8 v -0.2 -0.3 0 H 5 L 4.3,46.6 4,46.9 V 47 c -0.7,1.2 -1,2.6 -1,3.9 0,4.4 3.6,8 8,8 4.4,0 8,-3.6 8,-8 0,-0.7 -0.1,-1.3 -0.3,-2.1 z"
               inkscape:connector-curvature="0"
               style="fill:#263238" />
            <path
               id="path861"
               d="m 12,51 c 0,-0.5 -0.5,-1 -1,-1 -0.6,0 -1,0.5 -1,1 0,0.5 0.4,1 1,1 0.6,0 1,-0.5 1,-1 z m 2.4,-2 c 0.4,0.6 0.6,1.3 0.6,2 0,2.2 -1.8,4 -4,4 -2.2,0 -4,-1.8 -4,-4 0,-1.1 0.4,-2 1.1,-2.8 1.6,0.3 3.7,0.6 6.3,0.8 z"
               inkscape:connector-curvature="0"
               style="fill:#80deea" />
            <path
               id="path863"
               d="m 11,55.5 c -2.5,0 -4.5,-2 -4.5,-4.5 0,-1.2 0.4,-2.3 1.3,-3.1 l 0.7,0.7 c -0.6,0.7 -1,1.5 -1,2.4 0,1.9 1.6,3.5 3.5,3.5 1.9,0 3.5,-1.6 3.5,-3.5 0,-0.6 -0.2,-1.2 -0.5,-1.8 l 0.9,-0.5 c 0.4,0.7 0.6,1.5 0.6,2.3 0,2.5 -2,4.5 -4.5,4.5 z"
               inkscape:connector-curvature="0"
               style="fill:#ffffff" />
            <circle
               id="circle865"
               r="2"
               cy="51"
               cx="11"
               style="fill:#263238" />
          </g>
          <g
             id="g875">
            <path
               id="path869"
               d="m 60.3,38.5 v -7 c 1.4,0 2.5,1.6 2.5,3.5 0,1.9 -1.2,3.4 -2.5,3.5 z"
               inkscape:connector-curvature="0"
               style="fill:#fff59d" />
            <path
               id="path871"
               d="m 60.7,32 c 0,-0.2 0,-0.3 0,-0.5 V 31.2 C 60.6,30.1 59.8,29.3 58.8,29 l -1.9,-0.4 -0.2,1 0.3,0.1 1.2,3.9 c 0.6,2.1 0.9,4.3 0.9,6.5 v 0 0.5 c 0.9,0 1.5,-0.8 1.8,-2.4 0.1,-1.9 0,-4.4 -0.2,-6.2 z"
               inkscape:connector-curvature="0"
               style="fill:#1565c0" />
            <path
               id="path873"
               d="m 4.3,30 v -0.5 0 0 -0.5 h -2 c -1,0 -1.8,0.8 -1.8,1.8 v 2.4 c 0,1 0.8,1.8 1.8,1.8 h 1.8 v -0.5 z"
               inkscape:connector-curvature="0"
               style="fill:#ff1744" />
          </g>
          <path
             id="path877"
             d="M 48.3,42.9 3,42 c 0,1.3 0.1,2.5 0.2,3.5 v 0.4 c 0.1,0.9 0.5,1.7 1.2,2.2 0.4,0.3 0.8,0.5 1.3,0.6 0.7,0.2 1.5,0.3 2.3,0.5 2,0.4 4.1,0.6 6.4,0.8 0.3,0 0.6,0.1 1,0.1 l 28.1,1.6 c 0.1,0 0.1,0 0.2,0 1.2,0 2.3,-0.7 2.9,-1.8 l 2.2,-4.5 c 0.3,-0.6 1.5,-1.3 2.4,-1.3 v -2 c -1,-0.1 -2,0.3 -2.9,0.8 z"
             inkscape:connector-curvature="0"
             style="fill:#1565c0" />
          <path
             id="path879"
             d="M 59.9,40 C 60,37.7 59.7,35.4 59,33.2 L 57.6,28.7 C 57.4,27.9 56.7,27.4 56,27.2 55,27 51.7,26.4 48.9,26.4 l -0.6,1 c 0.7,1.2 0.2,1.8 -0.7,1.8 l -35.9,-1 c -1,0 -1.9,0.1 -2.8,0.5 L 8.1,29 C 7.5,29.2 6.8,29.2 6.2,28.8 L 6.1,28.7 C 5.6,28.4 5,28.3 4.5,28.2 h -1 C 3.3,28.8 3.3,29.1 3.3,29.4 L 3,37.1 c 0,0.6 0,1.3 -0.1,1.9 0,0 2,0 2,0 l 54,1 z"
             inkscape:connector-curvature="0"
             style="fill:#1e88e5" />
          <path
             id="path881"
             d="m 49.8,40.5 h 1.3 v -1 l -43.7,-1 v 1 h 1.3 c 0.4,0.3 0.7,0.6 0.7,1 0,0.4 -0.3,0.8 -0.7,1 H 7.5 v 1 l 43.6,1 v -1 h -1.4 c -0.4,-0.3 -0.7,-0.6 -0.7,-1 0,-0.4 0.4,-0.8 0.8,-1 z"
             inkscape:connector-curvature="0"
             style="fill:#64b5f6" />
          <g
             id="g891">
            <path
               id="path883"
               d="m 1.5,40.5 c 0,1.4 0.9,2.5 2,2.5 h 4 c 0.9,0 2.8,-0.9 3,-2.4 z"
               inkscape:connector-curvature="0"
               style="fill:#8d6e63" />
            <path
               id="path885"
               d="m 7.5,38 h -4 c -1.1,0 -2,1.1 -2,2.5 l 9,0.1 c 0,-0.1 0,-0.1 0,-0.1 0,-1.6 -2.1,-2.5 -3,-2.5 z"
               inkscape:connector-curvature="0"
               style="fill:#e0f7fa" />
            <path
               id="path887"
               d="m 59.9,39 h -8.7 c -0.9,0 -2.9,0.8 -3.1,2.3 l 14,0.2 C 62,40.1 61.1,39 59.9,39 Z"
               inkscape:connector-curvature="0"
               style="fill:#e0f7fa" />
            <path
               id="path889"
               d="m 48,41.3 c 0,0.1 0,0.1 0,0.2 0,1.6 2.2,2.4 3.1,2.5 H 60 c 1.2,0 2.1,-1.1 2.1,-2.5 v 0 z"
               inkscape:connector-curvature="0"
               style="fill:#8d6e63" />
          </g>
          <path
             id="path893"
             d="M 48.9,26.5 37.9,9.2 C 37.7,8.8 37.4,8.5 37.2,8.3 35.5,6.2 33.1,5 30.5,4.7 27.2,4.4 22.4,4 18.7,4 c -2.3,0 -5.1,0.2 -8.3,0.6 -2.2,0.3 -4,1.9 -4.6,4 0,0 0,0 0,0 C 5.7,9.3 6,10 6.6,10.3 v 0.2 H 7 c 1.2,0 2.1,1 2,2.2 l -0.7,8.9 c 0,0.5 -0.5,0.9 -1,0.9 H 5.7 v 0.3 c -0.6,0.3 -1.1,1 -1.1,1.7 l -0.1,1.6 c 0,0.4 -0.2,0.8 -0.4,1.1 C 4,27.4 3.8,27.6 3.7,27.9 V 28 c 0,0.1 -0.1,0.2 -0.1,0.3 h 1 c 0.5,0 1.1,0.2 1.6,0.5 l 0.1,0.1 c 0.6,0.3 1.3,0.4 1.9,0.2 L 9,28.8 c 0.9,-0.3 1.9,-0.5 2.8,-0.5 l 35.9,1 c 1,0 1.4,-0.6 0.7,-1.8 z M 40.9,26 H 36.8 31.6 14.9 c -1.1,0 -2.1,-0.9 -2.1,-2 L 12.2,14.5 12,12.3 C 11.9,11 12.9,10 14.2,10 h 16.6 c 1.5,0 2.9,0.8 3.7,2.1 l 1.5,2.4 3.6,6 2.3,3.9 c 0.4,0.7 -0.1,1.6 -1,1.6 z"
             inkscape:connector-curvature="0"
             style="fill:#42a5f5" />
          <g
             id="g899">
            <path
               id="path895"
               d="m 41.9,24.4 -6,-9.9 V 14 H 12.2 v 1 0 l 0.6,9 c 0.1,1.1 1,2 2.1,2 h 26 c 0.9,0 1.4,-0.9 1,-1.6 z"
               inkscape:connector-curvature="0"
               style="fill:#80cbc4" />
            <path
               id="path897"
               d="m 7,10.5 c 1.2,0 2.1,1 2,2.2 l -0.7,8.9 c 0,0.5 -0.5,0.9 -1,0.9 H 5.7 l 1,-12 z"
               inkscape:connector-curvature="0"
               style="fill:#80cbc4" />
          </g>
          <polygon
             id="polygon901"
             points="13.8,14 18.4,26 25.4,26 19.9,14 "
             style="fill:#e0f2f1" />
          <polygon
             id="polygon903"
             points="23.8,14 28.8,26 31.3,26 26.1,14 "
             style="fill:#e0f2f1" />
          <g
             id="g909">
            <rect
               id="rect905"
               y="23.299999"
               x="35"
               width="2"
               transform="matrix(0.8185,-0.5745,0.5745,0.8185,-7.6993,25.1781)"
               height="3"
               style="fill:#00838f" />
            <rect
               id="rect907"
               y="22.799999"
               x="30.799999"
               width="9.6000004"
               transform="matrix(0.8201,-0.5722,0.5722,0.8201,-6.9182,24.5213)"
               height="1"
               style="fill:#00838f" />
          </g>
          <g
             id="g915">
            <path
               id="path911"
               d="m 40.9,27 h -26 c -1.6,0 -3,-1.3 -3.1,-2.9 L 11,12.3 c -0.1,-0.9 0.3,-1.7 0.8,-2.3 0.6,-0.6 1.4,-1 2.3,-1 h 16.6 c 1.8,0 3.6,1 4.5,2.5 l 7.5,12.3 c 0.4,0.7 0.4,1.4 0,2.1 -0.3,0.7 -1,1.1 -1.8,1.1 z M 14.2,11 c -0.3,0 -0.6,0.1 -0.8,0.4 -0.2,0.2 -0.3,0.5 -0.3,0.8 l 0.8,11.7 c 0,0.6 0.5,1.1 1.2,1.1 h 26 c 0,0 0.1,0 0.1,0 L 33.7,12.6 C 33.1,11.6 32,11 30.9,11 Z"
               inkscape:connector-curvature="0"
               style="fill:#263238" />
            <path
               id="path913"
               d="M 7.2,23 H 5.7 C 5,23 5,22 5.7,22 h 1.6 c 0.3,0 0.5,-0.2 0.5,-0.5 L 8.5,12.6 C 8.5,12.2 8.4,11.8 8.1,11.5 7.8,11.2 7.4,11 7,11 H 6.6 c -0.7,0 -0.7,-1 0,-1 H 7 c 0.7,0 1.4,0.3 1.8,0.8 0.5,0.5 0.7,1.2 0.7,1.9 L 8.8,21.6 C 8.7,22.4 8,23 7.2,23 Z"
               inkscape:connector-curvature="0"
               style="fill:#263238" />
          </g>
          <g
             id="g919">
            <path
               id="path917"
               d="M 35.9,31.5 C 22.6,30.8 6.7,31 6.6,31 c -1.2,0 -1.2,-1.1 0,-1.1 0.2,0 12.3,-1 25.6,-0.4 1.8,0.1 6.3,0.3 7.8,0.3 9.7,0.4 14.9,0.2 17,4.1 l -0.4,1.4 C 54.1,32.8 50.2,32 40.9,31.6 c -1.6,0 -3.2,-0.1 -5,-0.1 z"
               inkscape:connector-curvature="0"
               style="fill:#e3f2fd" />
          </g>
          <path
             id="path921"
             d="m 50.2,23.4 0.2,-1 -1.5,-0.3 -0.2,1 h 0.2 c 0.3,0.5 0.4,1 0.3,1.4 -0.2,0.6 -0.9,0.8 -1.1,0.9 l -1.8,-0.3 c -0.7,-0.1 -0.9,0.9 -0.2,1 l 2,0.4 h 0.1 c 0.1,0 1.5,-0.4 1.9,-1.6 0.2,-0.5 0.2,-1 0,-1.5 z"
             inkscape:connector-curvature="0"
             style="fill:#1565c0" />
          <path
             id="path923"
             d="m 48.1,25 c 0,0 0,0 0,0 -0.4,-0.1 -0.5,-0.3 -0.5,-0.6 l 0.7,-4 c 0,-0.3 0.3,-0.5 0.6,-0.4 0.3,0 0.5,0.3 0.4,0.6 l -0.7,4 c 0,0.3 -0.2,0.4 -0.5,0.4 z"
             inkscape:connector-curvature="0"
             style="fill:#263238" />
        </g>
      </g>
      <g
         id="row_2" />
      <g
         id="row_1" />
    </g>
  </g>
</svg>
